<?xml version="1.0" encoding="utf-8" ?>
<svg baseProfile="full" height="1536" version="1.1" width="986" xmlns="http://www.w3.org/2000/svg" xmlns:ev="http://www.w3.org/2001/xml-events" xmlns:xlink="http://www.w3.org/1999/xlink"><defs /><path d="M 284,1 L 279,6 L 279,7 L 277,9 L 277,14 L 280,17 L 281,17 L 282,18 L 283,18 L 284,19 L 287,19 L 288,20 L 289,20 L 290,21 L 291,21 L 296,26 L 297,26 L 300,29 L 301,29 L 308,36 L 308,37 L 309,38 L 309,39 L 310,40 L 310,43 L 311,44 L 311,52 L 310,53 L 310,56 L 309,57 L 309,60 L 308,61 L 308,62 L 307,63 L 307,65 L 306,66 L 306,67 L 305,68 L 305,69 L 303,71 L 303,72 L 302,73 L 302,74 L 301,75 L 301,76 L 299,78 L 299,79 L 297,81 L 297,82 L 296,83 L 296,84 L 295,85 L 295,86 L 293,88 L 293,89 L 292,90 L 292,91 L 290,93 L 290,94 L 289,95 L 289,96 L 287,98 L 287,99 L 286,100 L 286,101 L 285,102 L 285,103 L 283,105 L 283,106 L 282,107 L 282,108 L 280,110 L 280,111 L 279,112 L 279,113 L 278,114 L 278,115 L 276,117 L 276,118 L 275,119 L 275,120 L 273,122 L 273,123 L 272,124 L 272,125 L 270,127 L 270,128 L 269,129 L 269,130 L 268,131 L 268,132 L 266,134 L 266,135 L 264,137 L 264,138 L 263,139 L 263,140 L 262,141 L 262,142 L 260,144 L 260,145 L 259,146 L 259,147 L 257,149 L 257,150 L 256,151 L 256,152 L 255,153 L 255,154 L 253,156 L 253,157 L 252,158 L 252,159 L 250,161 L 250,162 L 249,163 L 249,164 L 248,165 L 248,166 L 246,168 L 246,169 L 245,170 L 245,171 L 243,173 L 243,174 L 242,175 L 242,176 L 240,178 L 240,179 L 239,180 L 239,181 L 237,183 L 237,184 L 235,186 L 235,187 L 233,189 L 233,190 L 213,210 L 212,210 L 208,214 L 207,214 L 201,220 L 200,220 L 192,228 L 192,229 L 189,232 L 189,233 L 187,235 L 187,236 L 186,237 L 186,238 L 185,239 L 185,245 L 184,246 L 184,251 L 183,252 L 183,260 L 182,261 L 182,266 L 181,267 L 181,275 L 180,276 L 180,278 L 177,281 L 177,282 L 175,284 L 175,285 L 173,287 L 173,288 L 171,290 L 171,291 L 170,292 L 170,293 L 169,294 L 169,296 L 168,297 L 168,299 L 167,300 L 167,302 L 166,303 L 166,310 L 167,311 L 167,313 L 168,314 L 168,316 L 169,317 L 169,318 L 171,320 L 172,320 L 173,321 L 175,321 L 176,320 L 176,319 L 177,318 L 177,313 L 178,312 L 178,311 L 180,309 L 180,308 L 190,298 L 191,298 L 194,295 L 195,295 L 196,294 L 254,294 L 255,295 L 256,295 L 262,301 L 262,302 L 277,317 L 277,318 L 278,319 L 279,319 L 280,320 L 280,321 L 301,342 L 301,343 L 311,353 L 311,354 L 324,367 L 324,368 L 329,373 L 329,374 L 330,375 L 330,376 L 331,377 L 331,378 L 332,379 L 332,382 L 333,383 L 333,394 L 332,395 L 332,400 L 331,401 L 331,404 L 330,405 L 330,407 L 329,408 L 329,410 L 328,411 L 328,412 L 327,413 L 327,415 L 326,416 L 326,417 L 323,420 L 323,421 L 321,423 L 321,424 L 320,425 L 320,426 L 319,427 L 319,428 L 318,429 L 318,430 L 317,431 L 317,432 L 316,433 L 316,435 L 315,436 L 315,437 L 314,438 L 314,440 L 313,441 L 313,444 L 312,445 L 312,448 L 311,449 L 311,451 L 310,452 L 310,456 L 309,457 L 309,462 L 308,463 L 308,468 L 307,469 L 307,478 L 306,479 L 306,485 L 305,486 L 305,493 L 304,494 L 304,498 L 303,499 L 303,504 L 302,505 L 302,508 L 301,509 L 301,513 L 300,514 L 300,516 L 299,517 L 299,520 L 298,521 L 298,523 L 297,524 L 297,526 L 296,527 L 296,528 L 295,529 L 295,530 L 294,531 L 294,532 L 293,533 L 293,535 L 289,539 L 288,539 L 282,545 L 281,545 L 277,549 L 276,549 L 273,552 L 272,552 L 269,555 L 268,555 L 265,558 L 264,558 L 263,559 L 262,559 L 260,561 L 259,561 L 258,562 L 257,562 L 256,563 L 255,563 L 254,564 L 253,564 L 252,565 L 251,565 L 250,566 L 249,566 L 248,567 L 247,567 L 242,572 L 242,573 L 241,574 L 241,575 L 240,576 L 240,577 L 239,578 L 239,581 L 238,582 L 238,583 L 237,584 L 237,586 L 236,587 L 236,589 L 235,590 L 235,593 L 234,594 L 234,596 L 233,597 L 233,600 L 232,601 L 232,604 L 231,605 L 231,608 L 230,609 L 230,614 L 229,615 L 229,619 L 228,620 L 228,623 L 227,624 L 227,627 L 226,628 L 226,630 L 225,631 L 225,632 L 224,633 L 224,634 L 220,638 L 219,638 L 218,639 L 217,639 L 216,640 L 215,640 L 214,639 L 212,639 L 207,634 L 207,632 L 206,631 L 206,622 L 207,621 L 207,616 L 208,615 L 208,610 L 209,609 L 209,600 L 210,599 L 210,593 L 211,592 L 211,579 L 212,578 L 212,569 L 213,568 L 213,528 L 212,527 L 212,520 L 211,519 L 211,512 L 210,511 L 210,507 L 209,506 L 209,502 L 208,501 L 208,498 L 207,497 L 207,494 L 206,493 L 206,491 L 205,490 L 205,488 L 204,487 L 204,485 L 203,484 L 203,483 L 202,482 L 202,480 L 201,479 L 201,478 L 200,477 L 200,475 L 199,474 L 199,473 L 198,472 L 198,471 L 197,470 L 197,469 L 196,468 L 196,466 L 195,465 L 195,464 L 194,463 L 194,462 L 193,461 L 193,460 L 192,459 L 192,458 L 191,457 L 191,456 L 189,454 L 189,453 L 185,449 L 184,449 L 182,447 L 181,447 L 180,446 L 179,446 L 178,445 L 175,445 L 174,444 L 163,444 L 162,445 L 159,445 L 158,446 L 155,446 L 154,447 L 152,447 L 151,448 L 150,448 L 149,449 L 147,449 L 146,450 L 142,450 L 141,451 L 137,451 L 136,452 L 127,452 L 126,453 L 122,453 L 121,454 L 113,454 L 112,455 L 107,455 L 106,456 L 98,456 L 97,457 L 95,457 L 95,458 L 94,459 L 94,465 L 93,466 L 93,472 L 94,473 L 94,481 L 95,482 L 95,485 L 96,486 L 96,490 L 97,491 L 97,493 L 98,494 L 98,497 L 99,498 L 99,499 L 100,500 L 100,589 L 99,590 L 99,651 L 98,652 L 98,670 L 99,671 L 99,675 L 100,676 L 100,679 L 101,680 L 101,681 L 103,683 L 103,684 L 106,687 L 107,687 L 108,688 L 109,688 L 110,689 L 114,689 L 115,690 L 121,690 L 122,689 L 129,689 L 130,688 L 133,688 L 134,687 L 137,687 L 138,686 L 141,686 L 142,685 L 145,685 L 146,684 L 148,684 L 149,683 L 152,683 L 153,682 L 156,682 L 168,694 L 168,695 L 171,698 L 171,699 L 173,701 L 173,702 L 174,703 L 174,704 L 175,705 L 175,706 L 176,707 L 176,709 L 177,710 L 177,712 L 178,713 L 178,716 L 179,717 L 179,735 L 178,736 L 178,739 L 177,740 L 177,743 L 176,744 L 176,746 L 175,747 L 175,748 L 174,749 L 174,751 L 173,752 L 173,753 L 172,754 L 172,755 L 171,756 L 171,757 L 170,758 L 170,759 L 168,761 L 168,762 L 166,764 L 166,765 L 164,767 L 164,768 L 162,770 L 162,771 L 161,772 L 161,773 L 159,775 L 159,776 L 158,777 L 158,778 L 157,779 L 157,780 L 156,781 L 156,782 L 155,783 L 155,784 L 154,785 L 154,787 L 153,788 L 153,789 L 152,790 L 152,792 L 151,793 L 151,795 L 150,796 L 150,798 L 149,799 L 149,800 L 148,801 L 148,804 L 147,805 L 147,807 L 146,808 L 146,811 L 145,812 L 145,815 L 144,816 L 144,827 L 143,828 L 143,869 L 142,870 L 143,871 L 143,898 L 142,899 L 142,930 L 141,931 L 141,980 L 140,981 L 140,1002 L 139,1003 L 139,1037 L 138,1038 L 138,1053 L 137,1054 L 137,1077 L 136,1078 L 136,1087 L 135,1088 L 135,1102 L 134,1103 L 134,1107 L 133,1108 L 133,1114 L 132,1115 L 132,1118 L 131,1119 L 131,1126 L 130,1127 L 130,1130 L 129,1131 L 129,1137 L 128,1138 L 128,1142 L 127,1143 L 127,1149 L 126,1150 L 126,1155 L 125,1156 L 125,1162 L 124,1163 L 124,1167 L 123,1168 L 123,1175 L 122,1176 L 122,1180 L 121,1181 L 121,1188 L 120,1189 L 120,1193 L 119,1194 L 119,1201 L 118,1202 L 118,1208 L 117,1209 L 117,1214 L 116,1215 L 116,1221 L 115,1222 L 115,1227 L 114,1228 L 114,1235 L 113,1236 L 113,1241 L 112,1242 L 112,1249 L 111,1250 L 111,1254 L 110,1255 L 110,1262 L 109,1263 L 109,1270 L 108,1271 L 108,1286 L 107,1287 L 107,1295 L 106,1296 L 106,1311 L 105,1312 L 105,1320 L 104,1321 L 104,1336 L 103,1337 L 103,1344 L 102,1345 L 102,1360 L 101,1361 L 101,1369 L 100,1370 L 100,1384 L 96,1388 L 96,1389 L 91,1394 L 91,1395 L 85,1401 L 85,1402 L 81,1406 L 81,1407 L 77,1411 L 77,1412 L 73,1416 L 73,1417 L 68,1422 L 68,1423 L 65,1426 L 65,1427 L 61,1431 L 61,1432 L 59,1434 L 59,1435 L 56,1438 L 56,1439 L 54,1441 L 54,1442 L 52,1444 L 52,1445 L 49,1448 L 49,1449 L 43,1455 L 42,1455 L 38,1459 L 37,1459 L 35,1461 L 34,1461 L 32,1463 L 31,1463 L 30,1464 L 29,1464 L 28,1465 L 27,1465 L 26,1466 L 25,1466 L 24,1467 L 22,1467 L 21,1468 L 18,1468 L 17,1469 L 15,1469 L 14,1470 L 12,1470 L 11,1471 L 10,1471 L 9,1472 L 8,1472 L 6,1474 L 5,1474 L 3,1476 L 3,1477 L 2,1478 L 2,1479 L 1,1480 L 1,1486 L 2,1487 L 2,1489 L 3,1489 L 5,1491 L 6,1491 L 7,1492 L 8,1492 L 9,1493 L 10,1493 L 11,1494 L 13,1494 L 14,1495 L 16,1495 L 17,1496 L 21,1496 L 22,1497 L 27,1497 L 28,1496 L 31,1496 L 32,1495 L 35,1495 L 36,1494 L 38,1494 L 39,1493 L 40,1493 L 41,1492 L 42,1492 L 43,1491 L 44,1491 L 45,1490 L 46,1490 L 48,1488 L 49,1488 L 50,1487 L 51,1487 L 53,1485 L 54,1485 L 57,1482 L 58,1482 L 61,1479 L 62,1479 L 65,1476 L 66,1476 L 69,1473 L 70,1473 L 72,1471 L 73,1471 L 75,1469 L 76,1469 L 77,1468 L 78,1468 L 80,1466 L 82,1466 L 83,1465 L 85,1465 L 86,1464 L 89,1464 L 90,1463 L 103,1463 L 104,1464 L 109,1464 L 110,1465 L 113,1465 L 114,1466 L 117,1466 L 118,1467 L 119,1467 L 120,1468 L 123,1468 L 124,1469 L 125,1469 L 126,1470 L 128,1470 L 129,1471 L 130,1471 L 131,1472 L 133,1472 L 134,1473 L 135,1473 L 136,1474 L 138,1474 L 139,1475 L 140,1475 L 141,1476 L 143,1476 L 144,1477 L 146,1477 L 147,1478 L 149,1478 L 150,1479 L 161,1479 L 162,1478 L 163,1478 L 163,1477 L 164,1476 L 164,1471 L 162,1469 L 160,1469 L 159,1468 L 157,1468 L 156,1467 L 154,1467 L 153,1466 L 152,1466 L 151,1465 L 150,1465 L 149,1464 L 148,1464 L 146,1462 L 145,1462 L 142,1459 L 141,1459 L 133,1451 L 133,1450 L 129,1446 L 129,1445 L 127,1443 L 127,1442 L 126,1441 L 126,1440 L 125,1439 L 125,1438 L 124,1437 L 124,1436 L 123,1435 L 123,1434 L 122,1433 L 122,1430 L 121,1429 L 121,1428 L 120,1427 L 120,1387 L 121,1386 L 121,1379 L 122,1378 L 122,1367 L 123,1366 L 123,1361 L 124,1360 L 124,1353 L 125,1352 L 125,1348 L 126,1347 L 126,1341 L 127,1340 L 127,1336 L 128,1335 L 128,1329 L 129,1328 L 129,1324 L 130,1323 L 130,1318 L 131,1317 L 131,1313 L 132,1312 L 132,1307 L 133,1306 L 133,1304 L 134,1303 L 134,1300 L 135,1299 L 135,1296 L 136,1295 L 136,1293 L 137,1292 L 137,1290 L 138,1289 L 138,1286 L 139,1285 L 139,1283 L 140,1282 L 140,1280 L 141,1279 L 141,1276 L 142,1275 L 142,1273 L 143,1272 L 143,1270 L 144,1269 L 144,1267 L 145,1266 L 145,1264 L 146,1263 L 146,1261 L 147,1260 L 147,1257 L 148,1256 L 148,1254 L 149,1253 L 149,1251 L 150,1250 L 150,1248 L 151,1247 L 151,1245 L 152,1244 L 152,1242 L 153,1241 L 153,1239 L 154,1238 L 154,1236 L 155,1235 L 155,1233 L 156,1232 L 156,1230 L 157,1229 L 157,1227 L 158,1226 L 158,1224 L 159,1223 L 159,1221 L 160,1220 L 160,1217 L 161,1216 L 161,1214 L 162,1213 L 162,1211 L 163,1210 L 163,1208 L 164,1207 L 164,1205 L 165,1204 L 165,1201 L 166,1200 L 166,1198 L 167,1197 L 167,1195 L 168,1194 L 168,1191 L 169,1190 L 169,1188 L 170,1187 L 170,1184 L 171,1183 L 171,1181 L 172,1180 L 172,1177 L 173,1176 L 173,1174 L 174,1173 L 174,1170 L 175,1169 L 175,1167 L 176,1166 L 176,1162 L 177,1161 L 177,1159 L 178,1158 L 178,1153 L 179,1152 L 179,1149 L 180,1148 L 180,1142 L 181,1141 L 181,1138 L 182,1137 L 182,1130 L 183,1129 L 183,1124 L 184,1123 L 184,1115 L 185,1114 L 185,1109 L 186,1108 L 186,1099 L 187,1098 L 187,1092 L 188,1091 L 188,1081 L 189,1080 L 189,1073 L 190,1072 L 190,1061 L 191,1060 L 191,1053 L 192,1052 L 192,1049 L 191,1048 L 192,1047 L 192,1039 L 193,1038 L 193,1025 L 194,1024 L 194,1015 L 195,1014 L 195,1000 L 196,999 L 196,990 L 197,989 L 197,972 L 198,971 L 198,961 L 199,960 L 199,955 L 200,954 L 200,952 L 201,951 L 201,949 L 202,948 L 202,947 L 204,945 L 204,944 L 206,942 L 206,941 L 211,936 L 212,936 L 215,933 L 216,933 L 217,932 L 219,932 L 220,931 L 221,931 L 222,930 L 225,930 L 226,929 L 242,929 L 243,930 L 245,930 L 255,940 L 256,940 L 261,945 L 262,945 L 269,952 L 270,952 L 273,955 L 274,955 L 279,960 L 280,960 L 283,963 L 284,963 L 287,966 L 288,966 L 291,969 L 292,969 L 302,979 L 302,980 L 304,982 L 304,983 L 306,985 L 306,986 L 307,987 L 307,988 L 308,989 L 308,992 L 307,993 L 307,994 L 305,996 L 305,997 L 303,999 L 303,1000 L 302,1001 L 302,1002 L 301,1003 L 301,1004 L 299,1006 L 299,1008 L 297,1010 L 297,1011 L 296,1012 L 296,1013 L 294,1015 L 294,1016 L 293,1017 L 293,1018 L 292,1019 L 292,1020 L 291,1021 L 291,1022 L 289,1024 L 289,1026 L 287,1028 L 287,1029 L 286,1030 L 286,1031 L 285,1032 L 285,1033 L 284,1034 L 284,1035 L 283,1036 L 283,1037 L 281,1039 L 281,1040 L 280,1041 L 280,1042 L 279,1043 L 279,1044 L 278,1045 L 278,1046 L 277,1047 L 277,1048 L 276,1049 L 276,1050 L 275,1051 L 275,1052 L 274,1053 L 274,1054 L 273,1055 L 273,1056 L 272,1057 L 272,1058 L 271,1059 L 271,1060 L 270,1061 L 270,1062 L 269,1063 L 269,1064 L 268,1065 L 268,1066 L 267,1067 L 267,1068 L 266,1069 L 266,1070 L 265,1071 L 265,1072 L 264,1073 L 264,1074 L 263,1075 L 263,1076 L 262,1077 L 262,1079 L 261,1080 L 261,1081 L 260,1082 L 260,1083 L 259,1084 L 259,1085 L 258,1086 L 258,1088 L 256,1090 L 256,1092 L 255,1093 L 255,1094 L 254,1095 L 254,1096 L 253,1097 L 253,1099 L 252,1100 L 252,1102 L 251,1103 L 251,1104 L 250,1105 L 250,1106 L 249,1107 L 249,1109 L 248,1110 L 248,1112 L 247,1113 L 247,1115 L 246,1116 L 246,1117 L 245,1118 L 245,1120 L 244,1121 L 244,1124 L 243,1125 L 243,1127 L 242,1128 L 242,1130 L 241,1131 L 241,1136 L 240,1137 L 240,1141 L 239,1142 L 239,1155 L 238,1156 L 238,1166 L 239,1167 L 239,1181 L 240,1182 L 240,1187 L 241,1188 L 241,1193 L 242,1194 L 242,1198 L 243,1199 L 243,1203 L 244,1204 L 244,1207 L 245,1208 L 245,1211 L 246,1212 L 246,1215 L 247,1216 L 247,1219 L 248,1220 L 248,1222 L 249,1223 L 249,1226 L 250,1227 L 250,1229 L 251,1230 L 251,1232 L 252,1233 L 252,1235 L 253,1236 L 253,1238 L 254,1239 L 254,1242 L 255,1243 L 255,1244 L 256,1245 L 256,1248 L 257,1249 L 257,1250 L 258,1251 L 258,1253 L 259,1254 L 259,1256 L 260,1257 L 260,1259 L 261,1260 L 261,1262 L 262,1263 L 262,1265 L 263,1266 L 263,1268 L 264,1269 L 264,1272 L 265,1273 L 265,1274 L 266,1275 L 266,1278 L 267,1279 L 267,1282 L 268,1283 L 268,1286 L 269,1287 L 269,1289 L 270,1290 L 270,1294 L 271,1295 L 271,1298 L 272,1299 L 272,1302 L 273,1303 L 273,1306 L 274,1307 L 274,1311 L 275,1312 L 275,1315 L 276,1316 L 276,1320 L 277,1321 L 277,1324 L 278,1325 L 278,1330 L 279,1331 L 279,1333 L 280,1334 L 280,1339 L 281,1340 L 281,1343 L 282,1344 L 282,1350 L 283,1351 L 283,1355 L 284,1356 L 284,1360 L 285,1361 L 285,1365 L 286,1366 L 286,1369 L 285,1370 L 286,1371 L 285,1372 L 286,1373 L 286,1454 L 285,1455 L 286,1456 L 286,1463 L 285,1464 L 285,1467 L 284,1468 L 284,1471 L 283,1472 L 283,1474 L 282,1475 L 282,1476 L 281,1477 L 281,1478 L 280,1479 L 280,1480 L 278,1482 L 278,1483 L 274,1487 L 274,1488 L 268,1494 L 267,1494 L 262,1499 L 261,1499 L 259,1501 L 258,1501 L 257,1502 L 256,1502 L 255,1503 L 254,1503 L 252,1505 L 251,1505 L 250,1506 L 249,1506 L 248,1507 L 247,1507 L 246,1508 L 244,1508 L 243,1509 L 242,1509 L 241,1510 L 240,1510 L 239,1511 L 236,1511 L 235,1512 L 234,1512 L 233,1513 L 229,1513 L 228,1514 L 226,1514 L 225,1515 L 221,1515 L 220,1516 L 218,1516 L 217,1517 L 216,1517 L 213,1520 L 213,1521 L 212,1522 L 212,1524 L 211,1525 L 211,1531 L 212,1532 L 212,1534 L 274,1534 L 275,1533 L 276,1533 L 277,1532 L 279,1532 L 280,1531 L 281,1531 L 283,1529 L 284,1529 L 285,1528 L 286,1528 L 287,1527 L 288,1527 L 290,1525 L 291,1525 L 292,1524 L 293,1524 L 297,1520 L 298,1520 L 302,1516 L 303,1516 L 308,1511 L 309,1511 L 310,1510 L 312,1510 L 313,1509 L 316,1509 L 317,1508 L 333,1508 L 334,1509 L 338,1509 L 339,1510 L 342,1510 L 343,1511 L 345,1511 L 346,1512 L 348,1512 L 349,1513 L 350,1513 L 351,1514 L 352,1514 L 357,1519 L 357,1520 L 358,1521 L 359,1521 L 360,1522 L 361,1522 L 362,1523 L 371,1523 L 372,1522 L 374,1522 L 375,1521 L 375,1465 L 374,1464 L 374,1463 L 373,1462 L 373,1460 L 372,1459 L 372,1457 L 371,1456 L 371,1455 L 370,1454 L 370,1452 L 369,1451 L 369,1449 L 368,1448 L 368,1447 L 367,1446 L 367,1444 L 366,1443 L 366,1442 L 365,1441 L 365,1439 L 364,1438 L 364,1436 L 363,1435 L 363,1434 L 362,1433 L 362,1431 L 361,1430 L 361,1429 L 360,1428 L 360,1426 L 359,1425 L 359,1424 L 358,1423 L 358,1421 L 357,1420 L 357,1419 L 356,1418 L 356,1416 L 355,1415 L 355,1413 L 354,1412 L 355,1411 L 355,1387 L 354,1386 L 354,1353 L 353,1352 L 353,1341 L 352,1340 L 352,1322 L 351,1321 L 351,1312 L 350,1311 L 350,1296 L 349,1295 L 349,1288 L 348,1287 L 348,1274 L 347,1273 L 347,1266 L 346,1265 L 346,1209 L 347,1208 L 347,1200 L 348,1199 L 348,1190 L 349,1189 L 349,1186 L 350,1185 L 350,1181 L 351,1180 L 351,1178 L 352,1177 L 352,1175 L 353,1174 L 353,1173 L 354,1172 L 354,1171 L 356,1169 L 356,1168 L 361,1163 L 362,1163 L 364,1161 L 365,1161 L 366,1160 L 367,1160 L 368,1159 L 369,1159 L 370,1158 L 372,1158 L 373,1157 L 376,1157 L 377,1156 L 379,1156 L 380,1155 L 384,1155 L 385,1154 L 401,1154 L 402,1155 L 405,1155 L 406,1156 L 408,1156 L 409,1157 L 410,1157 L 411,1158 L 412,1158 L 414,1160 L 415,1160 L 417,1162 L 417,1166 L 418,1167 L 418,1171 L 419,1172 L 419,1177 L 420,1178 L 420,1181 L 421,1182 L 421,1187 L 422,1188 L 422,1191 L 423,1192 L 423,1196 L 424,1197 L 424,1201 L 425,1202 L 425,1206 L 426,1207 L 426,1210 L 427,1211 L 427,1215 L 428,1216 L 428,1221 L 429,1222 L 429,1224 L 430,1225 L 430,1229 L 431,1230 L 431,1232 L 432,1233 L 432,1236 L 433,1237 L 433,1239 L 434,1240 L 434,1243 L 435,1244 L 435,1245 L 436,1246 L 436,1249 L 437,1250 L 437,1252 L 438,1253 L 438,1255 L 439,1256 L 439,1259 L 440,1260 L 440,1262 L 441,1263 L 441,1265 L 442,1266 L 442,1268 L 443,1269 L 443,1271 L 444,1272 L 444,1274 L 445,1275 L 445,1277 L 446,1278 L 446,1280 L 447,1281 L 447,1282 L 448,1283 L 448,1285 L 449,1286 L 449,1288 L 450,1289 L 450,1291 L 451,1292 L 451,1294 L 452,1295 L 452,1296 L 453,1297 L 453,1300 L 454,1301 L 454,1302 L 455,1303 L 455,1305 L 456,1306 L 456,1308 L 457,1309 L 457,1311 L 458,1312 L 458,1313 L 459,1314 L 459,1316 L 460,1317 L 460,1318 L 461,1319 L 461,1321 L 462,1322 L 462,1324 L 463,1325 L 463,1327 L 464,1328 L 464,1329 L 465,1330 L 465,1332 L 466,1333 L 466,1334 L 467,1335 L 467,1337 L 469,1339 L 469,1340 L 470,1341 L 470,1342 L 471,1343 L 471,1344 L 473,1346 L 473,1347 L 474,1348 L 474,1349 L 475,1350 L 475,1351 L 477,1353 L 477,1355 L 479,1357 L 479,1358 L 480,1359 L 480,1360 L 481,1361 L 481,1362 L 483,1364 L 483,1365 L 484,1366 L 484,1367 L 485,1368 L 485,1369 L 486,1370 L 486,1371 L 487,1372 L 487,1373 L 489,1375 L 489,1376 L 490,1377 L 490,1378 L 491,1379 L 491,1380 L 493,1382 L 493,1383 L 494,1384 L 494,1385 L 495,1386 L 495,1387 L 496,1388 L 496,1389 L 497,1390 L 497,1391 L 498,1392 L 498,1393 L 500,1395 L 500,1396 L 501,1397 L 501,1398 L 502,1399 L 502,1400 L 504,1402 L 504,1403 L 505,1404 L 505,1405 L 506,1406 L 506,1407 L 507,1408 L 507,1409 L 508,1410 L 508,1411 L 509,1412 L 509,1413 L 511,1415 L 511,1416 L 512,1417 L 512,1418 L 513,1419 L 513,1420 L 515,1422 L 515,1423 L 516,1424 L 516,1425 L 517,1426 L 517,1427 L 518,1428 L 518,1429 L 519,1430 L 519,1431 L 521,1433 L 521,1434 L 522,1435 L 522,1436 L 523,1437 L 523,1438 L 524,1439 L 524,1440 L 526,1442 L 526,1443 L 527,1444 L 527,1445 L 528,1446 L 528,1447 L 529,1448 L 529,1449 L 530,1450 L 530,1451 L 532,1453 L 532,1454 L 533,1455 L 533,1456 L 535,1458 L 535,1459 L 536,1460 L 536,1461 L 537,1462 L 537,1463 L 539,1465 L 539,1466 L 540,1467 L 540,1468 L 542,1470 L 542,1471 L 545,1474 L 545,1475 L 548,1478 L 548,1479 L 553,1484 L 553,1485 L 561,1493 L 562,1493 L 566,1497 L 567,1497 L 570,1500 L 571,1500 L 572,1501 L 573,1501 L 575,1503 L 577,1503 L 578,1504 L 579,1504 L 580,1505 L 582,1505 L 583,1506 L 587,1506 L 588,1507 L 598,1507 L 599,1506 L 603,1506 L 604,1505 L 606,1505 L 607,1504 L 608,1504 L 609,1503 L 610,1503 L 612,1501 L 613,1501 L 615,1499 L 618,1499 L 619,1498 L 621,1498 L 622,1497 L 625,1497 L 626,1496 L 628,1496 L 629,1495 L 631,1495 L 632,1494 L 634,1494 L 635,1493 L 638,1493 L 639,1492 L 641,1492 L 642,1491 L 645,1491 L 646,1490 L 648,1490 L 649,1489 L 652,1489 L 653,1488 L 655,1488 L 656,1487 L 659,1487 L 660,1486 L 661,1486 L 662,1485 L 665,1485 L 666,1484 L 668,1484 L 669,1483 L 672,1483 L 673,1482 L 675,1482 L 676,1481 L 679,1481 L 680,1480 L 682,1480 L 683,1479 L 686,1479 L 687,1478 L 689,1478 L 690,1477 L 693,1477 L 694,1476 L 696,1476 L 697,1475 L 699,1475 L 700,1474 L 703,1474 L 704,1473 L 706,1473 L 707,1472 L 710,1472 L 711,1471 L 713,1471 L 714,1470 L 717,1470 L 718,1469 L 720,1469 L 721,1468 L 724,1468 L 725,1467 L 726,1467 L 727,1466 L 730,1466 L 731,1465 L 733,1465 L 734,1464 L 737,1464 L 738,1463 L 740,1463 L 741,1462 L 744,1462 L 745,1461 L 747,1461 L 748,1460 L 751,1460 L 752,1459 L 754,1459 L 755,1458 L 758,1458 L 759,1457 L 760,1457 L 761,1456 L 764,1456 L 765,1455 L 768,1455 L 769,1454 L 771,1454 L 772,1453 L 774,1453 L 775,1452 L 778,1452 L 779,1451 L 781,1451 L 782,1450 L 785,1450 L 786,1449 L 787,1449 L 788,1448 L 791,1448 L 792,1447 L 795,1447 L 796,1446 L 799,1446 L 800,1445 L 802,1445 L 803,1444 L 805,1444 L 806,1443 L 809,1443 L 810,1442 L 812,1442 L 813,1441 L 816,1441 L 817,1440 L 819,1440 L 820,1439 L 822,1439 L 823,1438 L 826,1438 L 827,1437 L 829,1437 L 830,1436 L 833,1436 L 834,1435 L 836,1435 L 837,1434 L 839,1434 L 840,1433 L 843,1433 L 844,1432 L 846,1432 L 847,1431 L 850,1431 L 851,1430 L 855,1430 L 856,1431 L 860,1431 L 861,1432 L 863,1432 L 864,1433 L 866,1433 L 867,1434 L 869,1434 L 870,1435 L 872,1435 L 873,1436 L 874,1436 L 875,1437 L 877,1437 L 878,1438 L 879,1438 L 880,1439 L 881,1439 L 882,1440 L 883,1440 L 884,1441 L 885,1441 L 887,1443 L 888,1443 L 889,1444 L 890,1444 L 892,1446 L 893,1446 L 895,1448 L 896,1448 L 899,1451 L 900,1451 L 904,1455 L 905,1455 L 917,1467 L 917,1468 L 922,1473 L 922,1474 L 926,1478 L 926,1479 L 929,1482 L 929,1483 L 931,1485 L 931,1486 L 934,1489 L 934,1490 L 936,1492 L 936,1493 L 938,1495 L 938,1496 L 941,1499 L 941,1500 L 944,1503 L 944,1504 L 949,1509 L 949,1510 L 952,1513 L 953,1513 L 955,1515 L 956,1515 L 957,1516 L 964,1516 L 965,1515 L 966,1515 L 969,1512 L 970,1512 L 970,1511 L 973,1508 L 973,1507 L 975,1505 L 975,1504 L 976,1503 L 976,1502 L 977,1501 L 977,1500 L 978,1499 L 978,1497 L 980,1495 L 980,1493 L 981,1492 L 981,1490 L 982,1489 L 982,1487 L 983,1486 L 983,1484 L 984,1483 L 984,1469 L 983,1468 L 983,1465 L 982,1464 L 982,1461 L 981,1460 L 981,1459 L 980,1458 L 980,1456 L 979,1455 L 979,1454 L 978,1453 L 978,1452 L 977,1451 L 977,1450 L 976,1449 L 976,1448 L 975,1447 L 975,1446 L 973,1444 L 973,1443 L 972,1442 L 972,1441 L 970,1439 L 970,1438 L 968,1436 L 968,1435 L 966,1433 L 966,1432 L 963,1429 L 963,1428 L 959,1424 L 959,1423 L 943,1407 L 943,1406 L 938,1401 L 938,1400 L 936,1398 L 936,1397 L 934,1395 L 934,1394 L 932,1392 L 932,1391 L 930,1389 L 930,1388 L 928,1386 L 928,1385 L 927,1384 L 927,1383 L 926,1382 L 926,1381 L 925,1380 L 925,1379 L 924,1378 L 924,1377 L 923,1376 L 923,1375 L 922,1374 L 922,1373 L 921,1372 L 921,1371 L 920,1370 L 920,1368 L 919,1367 L 919,1365 L 918,1364 L 918,1362 L 917,1361 L 917,1359 L 916,1358 L 916,1357 L 915,1356 L 915,1354 L 914,1353 L 914,1351 L 913,1350 L 913,1348 L 912,1347 L 912,1345 L 911,1344 L 911,1341 L 910,1340 L 910,1338 L 909,1337 L 909,1335 L 908,1334 L 908,1332 L 907,1331 L 907,1329 L 906,1328 L 906,1326 L 905,1325 L 905,1323 L 904,1322 L 904,1319 L 903,1318 L 903,1316 L 902,1315 L 902,1312 L 901,1311 L 901,1309 L 900,1308 L 900,1305 L 899,1304 L 899,1302 L 898,1301 L 898,1299 L 896,1297 L 896,1296 L 894,1294 L 893,1294 L 891,1292 L 890,1292 L 889,1291 L 888,1291 L 887,1290 L 886,1290 L 885,1289 L 880,1289 L 879,1290 L 876,1290 L 875,1291 L 874,1291 L 872,1293 L 871,1293 L 870,1294 L 869,1294 L 866,1297 L 866,1298 L 863,1301 L 863,1302 L 861,1304 L 861,1305 L 859,1307 L 859,1308 L 857,1310 L 857,1311 L 854,1314 L 854,1315 L 851,1318 L 851,1319 L 849,1321 L 849,1322 L 847,1324 L 847,1325 L 844,1328 L 844,1329 L 841,1332 L 664,1332 L 663,1331 L 662,1331 L 660,1329 L 659,1329 L 647,1317 L 647,1316 L 644,1313 L 644,1312 L 642,1310 L 642,1309 L 640,1307 L 640,1306 L 638,1304 L 638,1303 L 637,1302 L 637,1301 L 636,1300 L 636,1298 L 635,1297 L 635,1295 L 634,1294 L 634,1292 L 633,1291 L 633,1289 L 632,1288 L 632,1286 L 631,1285 L 631,1284 L 630,1283 L 630,1281 L 629,1280 L 629,1278 L 628,1277 L 628,1275 L 627,1274 L 627,1273 L 626,1272 L 626,1270 L 625,1269 L 625,1267 L 624,1266 L 624,1264 L 623,1263 L 623,1262 L 622,1261 L 622,1259 L 621,1258 L 621,1257 L 620,1256 L 620,1254 L 619,1253 L 619,1251 L 618,1250 L 618,1249 L 617,1248 L 617,1246 L 616,1245 L 616,1243 L 615,1242 L 615,1240 L 614,1239 L 614,1238 L 613,1237 L 613,1235 L 612,1234 L 612,1233 L 611,1232 L 611,1230 L 610,1229 L 610,1228 L 609,1227 L 609,1224 L 608,1223 L 608,1222 L 607,1221 L 607,1219 L 606,1218 L 606,1217 L 605,1216 L 605,1214 L 604,1213 L 604,1212 L 603,1211 L 603,1206 L 602,1205 L 602,1163 L 601,1162 L 601,1080 L 600,1079 L 600,1038 L 599,1037 L 599,1022 L 598,1021 L 598,1016 L 597,1015 L 597,1009 L 596,1008 L 596,1005 L 595,1004 L 595,1000 L 594,999 L 594,997 L 593,996 L 593,993 L 592,992 L 592,990 L 591,989 L 591,987 L 590,986 L 590,983 L 589,982 L 589,981 L 588,980 L 588,978 L 587,977 L 587,976 L 586,975 L 586,974 L 585,973 L 585,972 L 583,970 L 583,969 L 581,967 L 581,966 L 580,965 L 580,964 L 578,962 L 578,961 L 576,959 L 576,958 L 574,956 L 574,955 L 572,953 L 572,952 L 570,950 L 570,949 L 568,947 L 568,946 L 566,944 L 566,943 L 565,942 L 565,941 L 563,939 L 563,938 L 561,936 L 561,935 L 559,933 L 559,932 L 558,931 L 558,930 L 556,928 L 556,927 L 554,925 L 554,924 L 552,922 L 552,921 L 550,919 L 550,918 L 548,916 L 548,915 L 546,913 L 546,912 L 545,911 L 545,910 L 543,908 L 543,907 L 541,905 L 541,904 L 539,902 L 539,901 L 537,899 L 537,898 L 535,896 L 535,895 L 534,894 L 534,893 L 532,891 L 532,890 L 530,888 L 530,887 L 528,885 L 528,884 L 526,882 L 526,881 L 524,879 L 524,878 L 522,876 L 522,875 L 520,873 L 520,872 L 518,870 L 518,869 L 516,867 L 516,866 L 514,864 L 514,863 L 512,861 L 512,860 L 509,857 L 509,856 L 507,854 L 507,853 L 505,851 L 505,850 L 502,847 L 502,846 L 500,844 L 500,843 L 498,841 L 498,840 L 495,837 L 495,836 L 493,834 L 493,833 L 490,830 L 490,829 L 488,827 L 488,826 L 486,824 L 486,823 L 484,821 L 484,820 L 482,818 L 482,817 L 480,815 L 480,814 L 478,812 L 478,811 L 476,809 L 476,808 L 474,806 L 474,805 L 472,803 L 472,802 L 470,800 L 470,799 L 468,797 L 468,796 L 467,795 L 467,794 L 465,792 L 465,791 L 463,789 L 463,788 L 462,787 L 462,786 L 460,784 L 460,783 L 459,782 L 459,781 L 457,779 L 457,778 L 456,777 L 456,776 L 455,775 L 455,774 L 453,772 L 453,771 L 452,770 L 452,769 L 450,767 L 450,766 L 449,765 L 449,764 L 448,763 L 448,762 L 447,761 L 447,760 L 446,759 L 446,758 L 445,757 L 445,756 L 444,755 L 444,754 L 443,753 L 443,752 L 442,751 L 442,750 L 441,749 L 441,748 L 440,747 L 440,746 L 439,745 L 439,743 L 438,742 L 438,741 L 437,740 L 437,739 L 436,738 L 436,736 L 435,735 L 435,734 L 434,733 L 434,731 L 433,730 L 433,728 L 432,727 L 432,726 L 431,725 L 431,723 L 430,722 L 430,720 L 429,719 L 429,717 L 428,716 L 428,714 L 427,713 L 427,711 L 426,710 L 426,708 L 425,707 L 425,705 L 424,704 L 424,702 L 423,701 L 423,700 L 422,699 L 422,697 L 421,696 L 421,694 L 420,693 L 420,692 L 419,691 L 419,690 L 418,689 L 418,687 L 417,686 L 417,685 L 416,684 L 416,682 L 414,680 L 414,678 L 413,677 L 413,676 L 412,675 L 412,674 L 411,673 L 411,672 L 410,671 L 410,670 L 409,669 L 409,668 L 408,667 L 408,666 L 407,665 L 407,664 L 406,663 L 406,662 L 405,661 L 405,660 L 404,659 L 404,658 L 403,657 L 403,656 L 402,655 L 402,654 L 401,653 L 401,652 L 400,651 L 400,650 L 398,648 L 398,646 L 396,644 L 396,643 L 395,642 L 395,641 L 394,640 L 394,639 L 392,637 L 392,636 L 391,635 L 391,634 L 390,633 L 390,632 L 389,631 L 389,630 L 387,628 L 387,627 L 386,626 L 386,625 L 384,623 L 384,622 L 383,621 L 383,620 L 382,619 L 382,618 L 381,617 L 381,616 L 380,615 L 380,614 L 379,613 L 379,612 L 378,611 L 378,610 L 377,609 L 377,604 L 376,603 L 376,587 L 377,586 L 377,572 L 378,571 L 378,566 L 379,565 L 379,556 L 380,555 L 380,551 L 381,550 L 381,544 L 382,543 L 382,539 L 383,538 L 383,533 L 384,532 L 384,528 L 385,527 L 385,523 L 386,522 L 386,518 L 387,517 L 387,513 L 388,512 L 388,509 L 389,508 L 389,504 L 390,503 L 390,500 L 391,499 L 391,496 L 392,495 L 392,492 L 393,491 L 393,488 L 394,487 L 394,484 L 395,483 L 395,480 L 396,479 L 396,476 L 397,475 L 397,473 L 398,472 L 398,468 L 399,467 L 399,464 L 400,463 L 400,458 L 401,457 L 401,454 L 402,453 L 402,447 L 403,446 L 403,442 L 404,441 L 404,434 L 405,433 L 405,428 L 406,427 L 406,417 L 407,416 L 407,410 L 408,409 L 408,396 L 409,395 L 409,387 L 410,386 L 410,365 L 411,364 L 411,349 L 412,348 L 412,319 L 411,318 L 411,316 L 410,315 L 410,313 L 409,312 L 409,311 L 408,310 L 408,309 L 407,308 L 406,308 L 401,303 L 400,303 L 398,301 L 397,301 L 396,300 L 395,300 L 393,298 L 392,298 L 391,297 L 390,297 L 389,296 L 388,296 L 387,295 L 386,295 L 385,294 L 384,294 L 383,293 L 381,293 L 379,291 L 377,291 L 376,290 L 374,290 L 373,289 L 371,289 L 370,288 L 368,288 L 367,287 L 365,287 L 364,286 L 362,286 L 361,285 L 359,285 L 358,284 L 356,284 L 355,283 L 352,283 L 351,282 L 348,282 L 347,281 L 345,281 L 344,280 L 340,280 L 339,279 L 337,279 L 336,278 L 332,278 L 331,277 L 328,277 L 327,276 L 323,276 L 322,275 L 319,275 L 318,274 L 314,274 L 313,273 L 311,273 L 310,272 L 306,272 L 305,271 L 302,271 L 301,270 L 298,270 L 297,269 L 294,269 L 293,268 L 290,268 L 289,267 L 287,267 L 286,266 L 283,266 L 282,265 L 280,265 L 279,264 L 277,264 L 276,263 L 274,263 L 273,262 L 271,262 L 270,261 L 269,261 L 268,260 L 266,260 L 265,259 L 264,259 L 263,258 L 262,258 L 261,257 L 260,257 L 259,256 L 258,256 L 256,254 L 255,254 L 253,252 L 252,252 L 245,245 L 245,244 L 243,242 L 243,241 L 242,240 L 242,239 L 241,238 L 241,237 L 240,236 L 240,235 L 239,234 L 239,232 L 238,231 L 238,212 L 239,211 L 239,208 L 240,207 L 240,205 L 241,204 L 241,203 L 242,202 L 242,200 L 244,198 L 244,197 L 246,195 L 246,194 L 248,192 L 248,191 L 249,190 L 249,189 L 251,187 L 251,186 L 252,185 L 252,184 L 253,183 L 253,182 L 255,180 L 255,179 L 257,177 L 257,176 L 259,174 L 259,173 L 260,172 L 260,171 L 262,169 L 262,168 L 264,166 L 264,165 L 265,164 L 265,163 L 267,161 L 267,160 L 269,158 L 269,157 L 271,155 L 271,154 L 273,152 L 273,151 L 274,150 L 274,149 L 276,147 L 276,146 L 278,144 L 278,143 L 280,141 L 280,140 L 283,137 L 283,136 L 285,134 L 285,133 L 288,130 L 288,129 L 291,126 L 291,125 L 293,123 L 293,122 L 295,120 L 295,119 L 298,116 L 298,115 L 301,112 L 301,111 L 304,108 L 304,107 L 306,105 L 306,104 L 308,102 L 308,101 L 310,99 L 310,98 L 313,95 L 313,94 L 315,92 L 315,91 L 317,89 L 317,88 L 319,86 L 319,85 L 322,82 L 322,81 L 324,79 L 324,78 L 326,76 L 326,75 L 329,72 L 329,71 L 331,69 L 331,68 L 333,66 L 333,65 L 334,64 L 335,64 L 336,63 L 337,63 L 338,62 L 345,62 L 346,63 L 347,63 L 349,65 L 350,65 L 356,71 L 356,72 L 358,74 L 358,75 L 359,76 L 359,77 L 360,78 L 360,79 L 361,80 L 361,81 L 362,82 L 362,83 L 363,84 L 363,85 L 368,85 L 371,82 L 370,81 L 370,80 L 369,79 L 369,78 L 368,77 L 368,76 L 367,75 L 367,74 L 365,72 L 365,71 L 363,69 L 363,68 L 357,62 L 356,62 L 353,59 L 352,59 L 350,57 L 349,57 L 348,56 L 347,56 L 346,55 L 345,55 L 344,54 L 343,54 L 342,53 L 340,53 L 339,52 L 337,52 L 336,51 L 334,51 L 333,50 L 332,50 L 329,47 L 329,46 L 325,42 L 325,41 L 314,30 L 314,29 L 306,21 L 306,20 L 291,5 L 291,4 L 288,1 Z" fill="black" /></svg>