<svg version="1.1" id="Layer_1" xmlns="http://www.w3.org/2000/svg" xmlns:xlink="http://www.w3.org/1999/xlink" x="0px" y="0px"
	 width="100%" viewBox="0 0 1696 2528" enable-background="new 0 0 1696 2528" xml:space="preserve">
<path fill="none" opacity="1.000000" stroke="#000000" stroke-linecap="round" stroke-linejoin="round" stroke-width="3.000000"
	d="
M488.000000,2058.000000 
	C485.440948,2049.666748 487.974335,2041.333374 487.976501,2033.000000 
	C488.010162,1904.000000 488.000000,1775.000000 488.000000,1646.000000 
	C488.000000,1642.333374 488.000000,1638.666626 488.000000,1635.000000 
	C488.000000,1253.666626 487.999481,872.333313 488.005615,491.000000 
	C488.005676,485.917114 487.573120,480.765289 489.999908,476.000000 
	C731.000488,476.000000 972.000916,476.000000 1212.890747,476.000000 
	C1214.757568,480.190918 1213.954346,483.669891 1213.954712,487.000000 
	C1214.002075,1007.000000 1213.998657,1527.000000 1214.026855,2047.000000 
	C1214.026978,2050.677246 1213.313232,2054.456299 1215.000000,2058.000000 
"/>
<path fill="none" opacity="1.000000" stroke="#000000" stroke-linecap="round" stroke-linejoin="round" stroke-width="3.000000"
	d="
M1017.000000,1848.000000 
	C1017.742859,1846.068237 1018.031067,1844.113892 1018.051331,1842.000488 
	C1018.304871,1815.666382 1017.094482,1789.359009 1017.488647,1762.992310 
	C1017.841492,1739.386597 1017.209595,1715.666260 1017.063110,1691.999634 
	C1016.827881,1654.001099 1016.320435,1615.984009 1017.215271,1578.005127 
	C1017.930115,1547.662598 1017.627808,1517.332886 1017.994446,1486.999878 
	C1018.035156,1483.633667 1018.000000,1480.266724 1018.000000,1477.000000 
	C906.662659,1477.000000 796.328308,1477.000000 686.500000,1477.000000 
	C686.500000,1601.333374 686.500000,1724.666626 686.500000,1849.000000 
	C705.988892,1849.000000 726.003845,1849.384644 745.997437,1848.894409 
	C767.008972,1848.379395 787.964478,1847.635620 809.012024,1848.778198 
	C823.949951,1849.589111 838.999146,1848.106323 854.000183,1848.050049 
	C880.669373,1847.949951 907.341980,1848.591553 934.001282,1848.712524 
	C957.982300,1848.821411 982.001038,1848.309937 1005.997192,1847.852417 
	C1014.283447,1847.694458 1020.925781,1849.230835 1025.000000,1857.000000 
"/>
<path fill="none" opacity="1.000000" stroke="#000000" stroke-linecap="round" stroke-linejoin="round" stroke-width="3.000000"
	d="
M687.000000,1279.000000 
	C708.669189,1279.168945 730.343994,1279.641602 752.001404,1279.787842 
	C831.331116,1280.323730 910.666687,1279.985596 990.000000,1280.019897 
	C999.018005,1280.023682 1007.950439,1277.995605 1017.000000,1279.414185 
	C1017.000000,1075.000000 1017.000000,871.000000 1017.000000,667.059326 
	C1013.427490,665.630798 1009.690979,666.008911 1006.000000,666.008423 
	C923.000000,665.997498 839.999146,665.798523 757.000610,666.145935 
	C737.008728,666.229614 716.965515,664.597656 697.000000,667.000000 
"/>
<path fill="none" opacity="1.000000" stroke="#000000" stroke-linecap="round" stroke-linejoin="round" stroke-width="4.000000"
	d="
M1152.000000,540.000000 
	C1148.043579,542.043579 1145.455811,545.455811 1143.345703,548.500000 
	C948.333313,548.500000 753.666687,548.500000 558.500000,548.500000 
	C558.500000,1052.000244 558.500000,1555.000488 558.500000,2060.000000 
	C508.351227,2060.000000 458.675629,2060.000000 409.000000,2060.000000 
"/>
<path fill="none" opacity="1.000000" stroke="#000000" stroke-linecap="round" stroke-linejoin="round" stroke-width="3.000000"
	d="
M1050.000000,637.000000 
	C1052.266235,663.976135 1050.725830,691.001892 1050.862671,718.000671 
	C1050.940308,733.330139 1049.984131,748.619507 1050.764648,764.011902 
	C1051.742432,783.295654 1051.108276,802.667419 1050.973999,821.999817 
	C1050.786377,849.000549 1050.562500,876.011536 1050.413574,902.996765 
	C1050.264648,930.011475 1051.830811,956.987549 1051.115479,984.003052 
	C1050.153809,1020.324036 1048.669678,1056.668823 1051.023804,1092.998413 
	C1051.610229,1102.048706 1050.067505,1110.986328 1049.977051,1119.999756 
	C1049.331543,1184.338867 1051.998779,1248.659790 1050.811768,1312.899048 
	C919.000000,1314.161255 787.000000,1314.830933 655.000000,1313.000000 
"/>
<path fill="none" opacity="1.000000" stroke="#000000" stroke-linecap="round" stroke-linejoin="round" stroke-width="2.000000"
	d="
M1039.000000,645.000000 
	C1035.091309,643.571289 1031.019531,644.013977 1027.000000,644.012817 
	C962.000000,643.994751 896.999695,644.127075 832.000122,643.959656 
	C780.332886,643.826599 728.666748,643.326782 676.999939,643.011780 
	C672.646362,642.985229 668.248840,642.568604 663.690735,644.517639 
	C662.485291,646.868713 663.015991,649.976990 663.015747,653.000000 
	C662.998413,866.000000 662.994934,1079.000000 663.066162,1292.000000 
	C663.066895,1294.305054 661.851685,1296.925903 664.000000,1299.000000 
"/>
<path fill="none" opacity="1.000000" stroke="#000000" stroke-linecap="round" stroke-linejoin="round" stroke-width="3.000000"
	d="
M1152.000000,677.000000 
	C1155.095703,673.774963 1153.946289,669.732849 1153.958862,665.999878 
	C1154.039551,642.000122 1154.000000,618.000000 1154.000000,594.000000 
	C1154.000000,574.995972 1154.000000,555.991882 1154.000000,537.459229 
	C1149.427490,535.630798 1145.690918,536.008484 1142.000000,536.008301 
	C948.000000,535.998962 754.000000,535.982849 560.000122,536.130493 
	C556.344666,536.133240 551.425232,533.448120 549.000000,539.000000 
"/>
<path fill="none" opacity="1.000000" stroke="#000000" stroke-linecap="round" stroke-linejoin="round" stroke-width="3.000000"
	d="
M687.000000,679.000000 
	C684.859924,863.330078 686.441040,1047.666870 686.193726,1232.000244 
	C686.177185,1244.300903 684.564758,1256.723511 687.000000,1269.000000 
"/>
<path fill="none" opacity="1.000000" stroke="#000000" stroke-linecap="round" stroke-linejoin="round" stroke-width="3.000000"
	d="
M1140.000000,2044.000000 
	C947.000000,2044.000000 754.000000,2044.000000 561.000000,2044.000000 
"/>
<path fill="none" opacity="1.000000" stroke="#000000" stroke-linecap="round" stroke-linejoin="round" stroke-width="3.000000"
	d="
M1142.000000,1310.000000 
	C1142.271484,1469.666748 1141.378540,1629.336060 1143.000000,1789.000000 
"/>
<path fill="none" opacity="1.000000" stroke="#000000" stroke-linecap="round" stroke-linejoin="round" stroke-width="3.000000"
	d="
M1149.000000,744.000000 
	C1143.802979,745.844299 1141.810913,748.958679 1141.822266,755.000305 
	C1142.058105,880.333191 1142.000000,1005.666687 1142.000000,1131.000000 
	C1142.000000,1164.000000 1142.000000,1197.000000 1142.000000,1230.000000 
"/>
<path fill="none" opacity="1.000000" stroke="#000000" stroke-linecap="round" stroke-linejoin="round" stroke-width="2.000000"
	d="
M664.000000,1455.000000 
	C661.882629,1458.154907 663.069885,1461.687134 663.067871,1465.000000 
	C662.988159,1596.333374 663.022766,1727.666626 662.899170,1858.999878 
	C662.895142,1863.313599 664.728943,1868.137817 661.000000,1872.000000 
"/>
<path fill="none" opacity="1.000000" stroke="#000000" stroke-linecap="round" stroke-linejoin="round" stroke-width="2.000000"
	d="
M1042.000000,1452.000000 
	C1040.167969,1456.218018 1041.050659,1460.670532 1041.048706,1465.000000 
	C1040.989014,1595.666626 1041.001953,1726.333374 1040.992188,1857.000000 
	C1040.991821,1861.354126 1041.431396,1865.751099 1039.432983,1870.424927 
	C1042.673340,1872.659912 1044.363159,1876.303467 1048.000000,1878.000000 
"/>
<path fill="none" opacity="1.000000" stroke="#000000" stroke-linecap="round" stroke-linejoin="round" stroke-width="3.000000"
	d="
M1049.000000,1445.000000 
	C1050.530762,1460.307251 1050.941284,1475.555664 1050.372437,1491.013672 
	C1049.712402,1508.954956 1049.247437,1526.965454 1049.722778,1545.007324 
	C1050.662231,1580.649170 1050.000000,1616.333374 1050.000000,1652.000000 
	C1050.000000,1694.000000 1049.600098,1736.005493 1050.182739,1777.997437 
	C1050.441650,1796.661133 1049.290527,1815.317383 1050.792114,1834.016724 
	C1051.966064,1848.636475 1050.903564,1863.398438 1048.936646,1877.991455 
	C1048.380249,1882.119629 1051.033081,1880.844849 1053.000000,1881.000000 
"/>
<path fill="none" opacity="1.000000" stroke="#000000" stroke-linecap="round" stroke-linejoin="round" stroke-width="2.000000"
	d="
M1047.000000,1444.000000 
	C1043.845093,1441.882568 1040.313110,1443.071411 1036.999878,1443.068237 
	C947.000000,1442.982666 857.000000,1443.000000 767.000000,1443.000000 
	C738.333313,1443.000000 709.666626,1442.974731 681.000000,1443.015015 
	C671.991577,1443.027710 662.954407,1442.435303 653.895264,1444.200073 
	C652.037170,1449.909424 653.166077,1455.999146 653.041748,1462.000854 
	C652.503418,1487.997559 652.678467,1514.006104 652.376709,1540.004395 
	C652.075378,1565.970581 652.527405,1592.023926 652.567078,1618.000610 
	C652.635742,1662.989746 651.605774,1708.003174 652.131348,1752.998413 
	C652.614197,1794.332886 652.989807,1835.664062 653.025391,1877.000000 
	C653.026550,1878.366455 652.356018,1879.994385 654.000000,1881.000000 
"/>
<path fill="none" opacity="1.000000" stroke="#000000" stroke-linecap="round" stroke-linejoin="round" stroke-width="2.000000"
	d="
M651.000000,1883.000000 
	C655.666687,1883.000000 660.333313,1883.000000 665.000000,1883.000000 
	C741.333313,1883.000000 817.669250,1883.354980 893.998535,1882.799561 
	C919.326416,1882.615479 944.656067,1883.139404 970.012207,1882.446655 
	C992.603516,1881.829346 1015.330017,1882.958984 1037.999878,1882.925903 
	C1040.977295,1882.921509 1044.210815,1884.231079 1047.000000,1882.000000 
"/>
<path fill="none" opacity="1.000000" stroke="#000000" stroke-linecap="round" stroke-linejoin="round" stroke-width="2.000000"
	d="
M1047.000000,634.000000 
	C1031.050903,631.224548 1014.994568,633.503967 998.996216,633.201660 
	C964.341858,632.547058 929.666687,633.000000 895.000000,633.000000 
	C850.333313,633.000000 805.666687,633.000000 761.000000,633.000000 
	C729.666687,633.000000 698.333130,632.951721 667.000244,633.071045 
	C663.685669,633.083679 660.154907,631.882629 657.000000,634.000000 
"/>
<path fill="none" opacity="1.000000" stroke="#000000" stroke-linecap="round" stroke-linejoin="round" stroke-width="3.000000"
	d="
M1154.000000,1248.000000 
	C1154.368408,1262.665894 1154.318970,1277.332886 1154.754150,1292.007324 
	C1155.722290,1324.652100 1156.669800,1357.439209 1155.318481,1389.971680 
	C1154.153442,1418.018066 1154.364868,1446.016357 1154.222290,1474.001099 
	C1153.673828,1581.664917 1154.039551,1689.333496 1153.868652,1796.999756 
	C1153.861084,1801.781250 1157.415649,1808.418945 1148.187866,1810.745117 
	C1146.646118,1811.133667 1146.908203,1821.572266 1147.400391,1826.963501 
	C1148.197021,1835.690918 1147.640381,1844.335693 1147.930908,1853.002319 
	C1148.296021,1863.898315 1148.476318,1861.687744 1137.500000,1862.014893 
	C1137.500000,1838.333374 1137.500000,1814.666626 1137.500000,1789.919556 
	C1141.000000,1790.482422 1144.000000,1788.884766 1147.445190,1791.136597 
	C1149.279907,1796.820801 1146.526367,1803.200806 1149.000000,1809.000000 
"/>
<path fill="none" opacity="1.000000" stroke="#000000" stroke-linecap="round" stroke-linejoin="round" stroke-width="2.000000"
	d="
M1040.000000,1872.000000 
	C1039.333374,1871.666626 1038.655762,1872.881958 1038.001587,1872.873901 
	C998.669006,1872.387207 959.320740,1874.208862 919.995422,1872.085327 
	C914.695557,1871.799194 909.333557,1872.952759 903.999939,1872.957031 
	C826.000000,1873.019409 748.000000,1873.006226 670.000000,1872.957886 
	C668.333801,1872.956787 666.361816,1873.857666 665.000000,1872.000000 
"/>
<path fill="none" opacity="1.000000" stroke="#000000" stroke-linecap="round" stroke-linejoin="round" stroke-width="2.000000"
	d="
M1041.000000,1099.000000 
	C1041.000000,1166.668335 1041.000000,1234.336670 1041.000000,1301.806641 
	C1036.650269,1302.169312 1033.429565,1303.081299 1029.999878,1303.078613 
	C910.666687,1302.984497 791.333313,1303.004028 672.000000,1302.958008 
	C670.333862,1302.957397 668.361816,1303.857666 667.000000,1302.000000 
"/>
<path fill="none" opacity="1.000000" stroke="#000000" stroke-linecap="round" stroke-linejoin="round" stroke-width="2.000000"
	d="
M548.000000,541.000000 
	C545.882629,544.154907 547.073242,547.686768 547.068848,551.000061 
	C546.977722,620.333313 547.000000,689.666687 547.000000,759.000000 
	C547.000000,809.333313 548.040955,859.696167 546.616333,909.989136 
	C545.737427,941.019653 547.536560,971.983582 546.393677,1003.014526 
	C545.623596,1023.923157 545.537964,1044.979980 546.713074,1066.015991 
	C547.732788,1084.271851 545.877380,1102.737915 546.386841,1120.989258 
	C547.244019,1151.695312 545.333191,1182.345093 546.098267,1212.997559 
	C547.679077,1276.330811 546.710999,1339.666504 546.965576,1403.000122 
	C547.117004,1440.668701 546.224976,1478.343628 546.303711,1515.999390 
	C546.374756,1549.990845 546.169006,1584.008057 546.443115,1618.004517 
	C546.676575,1646.958374 546.572083,1676.002686 546.234985,1705.002686 
	C545.692688,1751.659180 547.362427,1798.342773 546.728882,1844.996338 
	C546.371277,1871.330688 545.600952,1897.682251 546.166199,1923.996460 
	C547.075562,1966.333740 546.834106,2008.665283 547.013245,2051.000000 
	C547.023254,2053.365479 546.578796,2055.822021 548.000000,2058.000000 
"/>
<path fill="none" opacity="1.000000" stroke="#000000" stroke-linecap="round" stroke-linejoin="round" stroke-width="2.000000"
	d="
M654.000000,637.000000 
	C651.882629,640.154907 653.069946,643.687073 653.067871,647.000061 
	C652.987976,776.333313 653.000000,905.666687 653.000000,1035.000000 
	C653.000000,1123.333374 653.000000,1211.666626 653.000000,1300.000000 
	C653.000000,1308.333374 653.000000,1316.666626 653.000000,1325.000000 
"/>
<path fill="none" opacity="1.000000" stroke="#000000" stroke-linecap="round" stroke-linejoin="round" stroke-width="3.000000"
	d="
M1154.000000,1810.000000 
	C1154.000000,1892.666626 1154.000000,1975.333374 1154.000000,2058.000000 
"/>
<path fill="none" opacity="1.000000" stroke="#000000" stroke-linecap="round" stroke-linejoin="round" stroke-width="2.000000"
	d="
M664.000000,1451.000000 
	C664.194031,1452.805908 665.202637,1454.034668 666.998718,1453.966797 
	C727.322632,1451.690186 787.668640,1453.668335 847.999939,1452.993530 
	C874.333679,1452.698975 900.667053,1452.040894 926.999939,1452.072021 
	C962.000244,1452.113281 997.000244,1452.646484 1031.999512,1453.039795 
	C1034.669556,1453.069946 1037.333374,1453.666626 1040.000000,1454.000000 
"/>
<path fill="none" opacity="1.000000" stroke="#000000" stroke-linecap="round" stroke-linejoin="round" stroke-width="3.000000"
	d="
M1152.000000,745.000000 
	C1155.095703,748.225037 1153.956543,752.267761 1153.960449,756.000061 
	C1154.017578,812.000000 1154.000000,868.000000 1154.000000,924.000000 
	C1154.000000,997.333313 1154.182617,1070.667480 1153.823120,1143.999146 
	C1153.762085,1156.445557 1157.268555,1168.704590 1155.814697,1180.978027 
	C1153.366577,1201.645508 1154.194702,1222.320190 1154.081177,1243.000488 
	C1154.063477,1246.226929 1153.373657,1247.707031 1149.000000,1246.711670 
	C1149.000000,1243.733276 1149.000000,1240.366577 1149.000000,1237.000000 
"/>
<path fill="none" opacity="1.000000" stroke="#000000" stroke-linecap="round" stroke-linejoin="round" stroke-width="3.000000"
	d="
M1143.000000,1864.000000 
	C1141.494141,1876.000000 1142.303711,1887.966675 1142.800293,1900.008179 
	C1143.458618,1915.978638 1142.658203,1932.000000 1142.208130,1948.005859 
	C1141.449341,1974.984497 1141.963379,2002.000122 1142.019531,2029.000000 
	C1142.039673,2038.673462 1141.207153,2048.383545 1143.000000,2058.000000 
"/>
<path fill="none" opacity="1.000000" stroke="#000000" stroke-linecap="round" stroke-linejoin="round" stroke-width="2.000000"
	d="
M1040.000000,647.000000 
	C1042.117432,650.154907 1040.923828,653.686462 1040.930420,657.000122 
	C1041.030762,706.999939 1041.000000,757.000000 1041.000000,807.000000 
"/>
<path fill="none" opacity="1.000000" stroke="#000000" stroke-linecap="round" stroke-linejoin="round" stroke-width="3.000000"
	d="
M1142.000000,550.000000 
	C1142.000000,588.000000 1142.027100,626.000061 1141.960205,663.999939 
	C1141.953125,668.042114 1143.354736,672.254333 1138.186768,675.315247 
	C1135.888184,676.676636 1135.973145,681.505188 1135.981079,685.000061 
	C1136.021851,702.999939 1136.234375,721.005249 1135.832886,738.996277 
	C1135.734253,743.416382 1137.106445,745.257324 1141.000000,746.000000 
"/>
<path fill="none" opacity="1.000000" stroke="#000000" stroke-linecap="round" stroke-linejoin="round" stroke-width="2.000000"
	d="
M1041.000000,839.000000 
	C1041.000000,871.000000 1041.000000,903.000000 1041.000000,935.000000 
"/>
<path fill="none" opacity="1.000000" stroke="#000000" stroke-linecap="round" stroke-linejoin="round" stroke-width="2.000000"
	d="
M1041.000000,1015.000000 
	C1041.000000,1040.333374 1041.000000,1065.666626 1041.000000,1091.000000 
"/>
<path fill="none" opacity="1.000000" stroke="#000000" stroke-linecap="round" stroke-linejoin="round" stroke-width="2.000000"
	d="
M631.000000,1385.000000 
	C638.024414,1383.402832 635.258179,1377.537231 634.748291,1374.036621 
	C632.972168,1361.842529 624.880371,1353.243286 613.985596,1352.142334 
	C601.473389,1350.878052 592.336060,1354.235229 587.000000,1367.000000 
"/>
<path fill="none" opacity="1.000000" stroke="#000000" stroke-linecap="round" stroke-linejoin="round" stroke-width="2.000000"
	d="
M1041.000000,939.000000 
	C1041.000000,961.000000 1041.000000,983.000000 1041.000000,1005.000000 
"/>
<path fill="none" opacity="1.000000" stroke="#000000" stroke-linecap="round" stroke-linejoin="round" stroke-width="3.000000"
	d="
M1139.000000,2060.000000 
	C1147.333374,2060.000000 1155.666626,2060.000000 1164.000000,2060.000000 
	C1202.333374,2060.000000 1240.666626,2060.000000 1279.000000,2060.000000 
"/>
<path fill="none" opacity="1.000000" stroke="#000000" stroke-linecap="round" stroke-linejoin="round" stroke-width="2.000000"
	d="
M1147.000000,1232.000000 
	C1139.900024,1229.958374 1137.168335,1231.800903 1136.739502,1239.986328 
	C1135.689331,1260.028198 1137.593140,1279.998413 1137.072510,1300.001831 
	C1137.002075,1302.707520 1135.756714,1305.952271 1138.995239,1308.007568 
	C1143.259888,1310.713623 1145.476562,1307.429810 1148.000000,1305.000000 
"/>
<path fill="none" opacity="1.000000" stroke="#000000" stroke-linecap="round" stroke-linejoin="round" stroke-width="2.000000"
	d="
M585.000000,1371.000000 
	C585.000000,1375.666626 584.239075,1380.488037 585.150269,1384.969482 
	C587.406189,1396.065063 594.894470,1400.893555 606.996399,1401.161743 
	C611.786743,1401.267944 616.349976,1400.195801 620.976074,1399.750854 
	C628.068481,1399.068970 632.042175,1391.238403 629.989563,1384.002930 
	C628.176575,1377.612183 628.631592,1370.667969 624.077881,1364.938110 
	C616.509705,1355.415283 604.290405,1355.250000 595.000000,1365.000000 
"/>
<path fill="none" opacity="1.000000" stroke="#000000" stroke-linecap="round" stroke-linejoin="round" stroke-width="3.000000"
	d="
M1148.000000,1248.000000 
	C1148.000000,1264.000000 1147.885254,1280.001587 1148.103394,1295.998535 
	C1148.143677,1298.959961 1145.646606,1303.843384 1152.000000,1304.000000 
"/>
<path fill="none" opacity="1.000000" stroke="#000000" stroke-linecap="round" stroke-linejoin="round" stroke-width="3.000000"
	d="
M1152.000000,687.000000 
	C1155.725586,694.858643 1153.982788,702.945190 1153.000000,711.000000 
"/>
<path fill="none" opacity="1.000000" stroke="#000000" stroke-linecap="round" stroke-linejoin="round" stroke-width="3.000000"
	d="
M1150.000000,687.000000 
	C1145.918823,694.843811 1148.222656,702.953735 1149.000000,711.000000 
"/>
<path fill="none" opacity="1.000000" stroke="#000000" stroke-linecap="round" stroke-linejoin="round" stroke-width="2.000000"
	d="
M1041.000000,817.000000 
	C1041.000000,823.000000 1041.000000,829.000000 1041.000000,835.000000 
"/>
<path fill="none" opacity="1.000000" stroke="#000000" stroke-linecap="round" stroke-linejoin="round" stroke-width="3.000000"
	d="
M1150.000000,729.000000 
	C1146.876465,722.807922 1146.830322,716.786865 1151.000000,709.142639 
	C1155.169678,716.786865 1155.123535,722.807922 1152.000000,729.000000 
"/>
<path fill="none" opacity="1.000000" stroke="#000000" stroke-linecap="round" stroke-linejoin="round" stroke-width="2.000000"
	d="
M490.000000,480.000000 
	C496.230774,481.424255 499.550049,486.289337 503.000000,491.000000 
"/>
<path fill="none" opacity="1.000000" stroke="#000000" stroke-linecap="round" stroke-linejoin="round" stroke-width="2.000000"
	d="
M1029.000000,655.000000 
	C1026.647217,659.558105 1022.188538,662.201660 1019.000000,666.000000 
"/>
<path fill="none" opacity="1.000000" stroke="#000000" stroke-linecap="round" stroke-linejoin="round" stroke-width="2.000000"
	d="
M628.000000,1387.000000 
	C624.811462,1390.798340 620.352722,1393.441895 618.000000,1398.000000 
"/>
<path fill="none" opacity="1.000000" stroke="#000000" stroke-linecap="round" stroke-linejoin="round" stroke-width="2.000000"
	d="
M551.000000,540.000000 
	C553.333374,542.333313 555.666687,544.666626 558.000000,547.000000 
"/>
</svg>