<svg fill="#000000" width="800px" height="800px" viewBox="0 0 32 32" version="1.1" xmlns="http://www.w3.org/2000/svg">
<title>door</title>
<path d="M21.324 31.999h-10.655c-1.175 0-2.129-0.955-2.129-2.129v-27.742c0-1.175 0.955-2.129 2.129-2.129h10.655c1.175 0 2.129 0.955 2.129 2.129v27.742c0 1.175-0.955 2.129-2.129 2.129zM10.669 1.064c-0.587 0-1.064 0.478-1.064 1.064v27.742c0 0.587 0.478 1.064 1.064 1.064h10.655c0.587 0 1.064-0.478 1.064-1.064v-27.742c0-0.587-0.478-1.064-1.064-1.064h-10.655zM18.661 17.064c0.587 0 1.064-0.478 1.064-1.064s-0.478-1.064-1.064-1.064-1.064 0.478-1.064 1.064 0.478 1.064 1.064 1.064z"></path>
</svg>